<svg width="20" height="20" fill="none" xmlns="http://www.w3.org/2000/svg"><path fill-rule="evenodd" clip-rule="evenodd" d="M10.363 11.333c2.306 0 4.181-1.794 4.181-4V6c0-2.206-1.875-4-4.181-4C8.056 2 6.18 3.794 6.18 6v1.333c0 2.206 1.875 4 4.182 4zm6.462-.97h-1.52v1.455h-1.52v1.455h1.52v1.454h1.52v-1.454h1.52v-1.455h-1.52v-1.454zm-4.444 2.304c.322 1.521 1.736 3.16 4.277 3.16a3.58 3.58 0 001.446-.308c.028.046.055.09.08.134.357.59.542.897.542 1.68V18H2v-.667c0-2.573 2.189-4.666 4.878-4.666h5.502z" fill="#91909A"/></svg>