<svg width="60" height="60" fill="none" xmlns="http://www.w3.org/2000/svg"><rect x="1" y="1" width="58" height="58" rx="5.524" fill="#fff" stroke="#E1D6BF"/><g clip-path="url(#clip0)"><path d="M28.302 46.973h-13.79c-2.09 0-3.49-1.419-3.49-3.575V23.57c0-2.115 1.4-3.655 3.464-3.521 1.922.12 3.503-.442 5.124-1.446 4.47-2.771 9.02-5.41 13.542-8.087 1.947-1.151 3.79-.643 4.888 1.352.236.415.471.844.706 1.259 1.203 2.156 2.418 4.311 3.62 6.467.184.321.393.468.746.549 1.477.321 2.523 1.633 2.549 3.186a76.96 76.96 0 010 2.45c0 .683-.288.978-.954.978-1.87 0-3.752-.014-5.62.013-3.203.04-5.818 2.236-6.484 5.45-.784 3.762 1.96 7.618 5.699 7.966 2.052.188 4.104.04 6.156.067.994.013 1.203.214 1.203 1.232 0 .723.013 1.432 0 2.155-.026 1.902-1.451 3.348-3.307 3.348-4.693-.014-9.372-.014-14.052-.014zm-7.698-27.046c.013.027.013.067.026.094h2.875c.17 0 .314-.08.458-.16 4.065-2.424 8.13-4.834 12.195-7.244.3-.187.248-.308.052-.509-.535-.575-1.307-.67-2.052-.227l-7.176 4.258c-2.13 1.258-4.248 2.517-6.378 3.788zm12.98.054h7.097a744.08 744.08 0 00-1.36-2.423c-.418-.737-.418-.75-1.137-.322-1.503.884-2.993 1.781-4.6 2.745z" fill="#404DC4"/><path d="M41.845 28.43c.993 0 1.987-.012 2.98 0 1.399.014 2.47 1.099 2.483 2.531.014 1.687.014 3.374 0 5.048-.013 1.406-1.071 2.504-2.444 2.517-1.987.013-3.973.027-5.96 0-2.667-.04-4.81-2.356-4.797-5.114.026-2.718 2.209-4.968 4.85-4.994.966.013 1.92.013 2.888.013zm-2.784 3.388c-.928 0-1.647.723-1.647 1.674 0 .937.719 1.674 1.66 1.66.889 0 1.62-.75 1.634-1.647a1.677 1.677 0 00-1.647-1.687z" fill="#404DC4"/><circle cx="45.336" cy="18.98" r="6.705" fill="#EB5757"/><path d="M45.789 20.824h-.886l-.097-4.351h1.085l-.102 4.351zm-1.013 1.33a.54.54 0 01.157-.398.57.57 0 01.428-.16.57.57 0 01.428.16.54.54 0 01.157.398.535.535 0 01-.153.39c-.102.105-.245.157-.432.157-.186 0-.33-.052-.432-.157a.537.537 0 01-.153-.39z" fill="#fff"/></g><defs><clipPath id="clip0"><path fill="#fff" transform="translate(11.023 9.909)" d="M0 0h41.018v37.863H0z"/></clipPath></defs></svg>