<svg width="45" height="46" fill="none" xmlns="http://www.w3.org/2000/svg"><rect x=".396" y="1.145" width="43.998" height="43.998" rx="3.983" fill="#fff" stroke="#E1D6BF" stroke-width=".793"/><g clip-path="url(#clip0)" fill="#219626"><path d="M20.525 36.076H9.593c-1.658 0-2.767-1.125-2.767-2.834v-15.72c0-1.677 1.109-2.898 2.746-2.792 1.523.096 2.777-.35 4.062-1.146 3.544-2.198 7.15-4.289 10.736-6.412 1.544-.912 3.005-.51 3.875 1.072.187.33.373.67.56.998.953 1.71 1.917 3.418 2.87 5.127a.809.809 0 00.591.435c1.171.255 2 1.295 2.02 2.527.011.647.011 1.295 0 1.942 0 .541-.227.775-.756.775-1.482 0-2.974-.01-4.456.01-2.538.032-4.61 1.773-5.14 4.32-.621 2.983 1.555 6.04 4.519 6.316 1.627.149 3.253.032 4.88.053.788.011.954.17.954.977 0 .573.01 1.136 0 1.709-.02 1.507-1.15 2.654-2.622 2.654-3.72-.01-7.43-.01-11.14-.01zm-6.103-21.442c.01.022.01.054.02.075h2.28c.135 0 .249-.064.363-.128 3.223-1.92 6.445-3.832 9.668-5.742.239-.149.197-.244.042-.403-.425-.457-1.037-.531-1.627-.18l-5.69 3.374c-1.688.998-3.367 1.996-5.056 3.004zm10.29.043h5.627c-.373-.669-.726-1.295-1.078-1.921-.332-.584-.332-.595-.902-.255-1.191.7-2.373 1.412-3.647 2.176z"/><path d="M31.262 21.376c.787 0 1.575-.01 2.362 0 1.11.01 1.959.87 1.97 2.006.01 1.337.01 2.675 0 4.002-.011 1.114-.85 1.985-1.939 1.995-1.575.01-3.15.021-4.725 0-2.114-.032-3.813-1.868-3.803-4.055.02-2.154 1.751-3.938 3.845-3.959.766.01 1.523.01 2.29.01zm-2.208 2.685c-.735 0-1.305.573-1.305 1.327 0 .743.57 1.327 1.316 1.316.704 0 1.285-.594 1.295-1.305a1.33 1.33 0 00-1.306-1.338z"/></g><defs><clipPath id="clip0"><path fill="#fff" transform="translate(6.826 6.692)" d="M0 0h32.519v30.017H0z"/></clipPath></defs></svg>