<svg width="58" height="58" fill="none" xmlns="http://www.w3.org/2000/svg"><rect width="58" height="58" rx="5.524" fill="#E1D6BF"/><path d="M20.693 31.418c-.123 1.69-.748 3.021-1.878 3.992-1.122.971-2.603 1.457-4.445 1.457-2.013 0-3.6-.676-4.757-2.029-1.151-1.359-1.727-3.222-1.727-5.588v-.96c0-1.51.267-2.841.799-3.992.532-1.151 1.29-2.032 2.276-2.643.993-.619 2.143-.928 3.453-.928 1.812 0 3.272.485 4.38 1.456 1.107.971 1.748 2.334 1.92 4.09h-3.236c-.08-1.015-.364-1.749-.853-2.202-.482-.46-1.219-.69-2.211-.69-1.08 0-1.888.388-2.428 1.165-.532.77-.805 1.967-.82 3.593v1.186c0 1.698.255 2.939.766 3.723.518.783 1.33 1.175 2.438 1.175 1 0 1.745-.226 2.234-.68.496-.46.78-1.168.852-2.125h3.237zm15.028-2.265c0 1.546-.273 2.902-.82 4.067-.546 1.165-1.33 2.064-2.352 2.697-1.014.633-2.179.95-3.495.95-1.302 0-2.464-.313-3.485-.939-1.021-.626-1.812-1.518-2.373-2.676-.561-1.165-.846-2.503-.853-4.013v-.777c0-1.546.277-2.905.831-4.078.561-1.18 1.349-2.082 2.363-2.708 1.021-.633 2.186-.95 3.495-.95 1.31 0 2.47.317 3.485.95 1.021.626 1.809 1.529 2.363 2.708.56 1.172.841 2.528.841 4.067v.702zm-3.28-.712c0-1.647-.294-2.899-.884-3.755-.59-.856-1.431-1.284-2.525-1.284-1.086 0-1.924.425-2.514 1.273-.59.842-.888 2.08-.895 3.712v.766c0 1.604.295 2.848.885 3.733.59.884 1.438 1.327 2.546 1.327 1.086 0 1.92-.425 2.503-1.273.582-.856.877-2.1.884-3.733v-.766zm5.632 8.21V20.942h4.834c1.38 0 2.614.313 3.7.94 1.093.618 1.946 1.502 2.557 2.653.611 1.144.917 2.446.917 3.906v.723c0 1.46-.302 2.758-.906 3.894a6.416 6.416 0 01-2.536 2.644c-1.093.625-2.326.942-3.7.949h-4.866zm3.237-13.087v10.487h1.564c1.266 0 2.233-.414 2.902-1.24.67-.828 1.01-2.011 1.025-3.55v-.831c0-1.597-.33-2.805-.992-3.625-.662-.827-1.63-1.24-2.902-1.24H41.31z" fill="#0052BF"/></svg>