<svg width="257" height="29" fill="none" xmlns="http://www.w3.org/2000/svg"><path d="M47.614 15.723c-.982-.715-2.322-1.251-3.662-1.34a7.16 7.16 0 00-3.305.536v2.144c.089-.09.267-.268.446-.358.804-.625 1.876-.982 2.948-1.161a6.251 6.251 0 013.305.625c1.072.536 1.966 1.25 2.591 2.233-.536-.982-1.34-1.965-2.323-2.68zM8.219 19.921V18.67a6.535 6.535 0 00-3.216 0c-1.251.268-2.412.983-3.306 1.787A6.487 6.487 0 000 23.494c.447-1.072 1.161-2.054 2.055-2.68a5.963 5.963 0 013.126-1.25c1.072-.179 2.144 0 3.038.357zm32.427-.536l-.536-.268-.804-.268c-.178-.09-.357-.09-.536-.179-.178-.089-.446-.089-.625-.178-.178 0-.268-.09-.447-.09-.625-.178-1.25-.268-1.876-.357-1.072-.179-2.144-.179-3.216-.179-1.25.09-2.59.268-3.84.626-.805.268-1.52.536-2.234.893a5.693 5.693 0 00-1.25.715 13.632 13.632 0 00-4.646 4.377c-.09-.09-.179-.09-.268-.179-1.697-.982-3.752-1.518-5.807-1.518-.536 0-.982 0-1.518.089-.625.09-1.25.179-1.876.357-.357.09-.715.268-1.072.358-.447.178-.983.446-1.43.625l-.535.268c-1.52.983-2.68 2.323-3.306 3.841 1.34-1.25 2.859-2.233 4.467-2.858 1.608-.626 3.394-.983 5.092-.983 1.786 0 3.484.268 5.092.983 1.608.625 3.126 1.608 4.466 2.858 0 0 1.608-7.414 8.844-8.665 7.415-1.34 12.775 3.573 12.775 3.573-.447-.446-.804-.804-1.251-1.161.447.357.893.715 1.25 1.161-1.071-1.518-2.858-2.858-4.913-3.84z" fill="#2E82BC"/><path d="M40.646 10.273V4.2l-.714-.18c-.804-.178-1.519-.356-2.323-.356V.983l-.625-.179C35.376.268 33.857 0 32.517 0c-1.519 0-2.77.268-3.93.715-1.698.625-2.948 1.518-3.753 2.322l-.446.447c-.358-.357-.804-.804-1.43-1.25-.714-.537-1.697-1.073-2.769-1.52C19.117.269 17.777 0 16.26 0c-1.34 0-2.859.268-4.467.804l-.625.179v2.769c-.715 0-1.519.179-2.323.357l-.625.09v18.223l.536-.268c.446-.268.893-.446 1.43-.625V5.54c.356-.09.714-.09 1.071-.09v15.722c.625-.179 1.25-.268 1.876-.358V2.233a10.529 10.529 0 013.127-.446c1.25 0 2.322.268 3.216.536 1.34.536 2.412 1.25 3.126 1.965l.804.804.09.09V17.24l.267-.268c.447-.357 1.162-.536 1.608-.625V5.092c.268-.357.804-.983 1.698-1.608.625-.447 1.34-.893 2.322-1.25.894-.358 1.966-.537 3.216-.537.983 0 2.055.179 3.216.447v13.579c.626.089 1.251.178 1.876.357V5.449c.358 0 .715.09 1.072.09v10.809c.179.09.358.09.536.178.268.09.536.18.804.268l.536.268v-6.789zm148.372 5.003h-5.985v3.841h6.7v3.037H179.37V5.896h10.005v3.037h-6.342v3.395h5.985v2.948zm3.841-9.112c.983-.179 2.859-.357 4.735-.357 2.233 0 3.573.178 4.824.893 1.161.625 1.965 1.697 1.965 3.216 0 1.43-.804 2.77-2.68 3.484 1.876.447 3.216 1.876 3.216 4.02 0 1.518-.714 2.68-1.697 3.484-1.161.982-3.127 1.518-6.343 1.518-1.786 0-3.126-.089-3.93-.268V6.164h-.09zm3.663 6.164h1.161c1.966 0 2.948-.804 2.948-2.055 0-1.25-.893-1.876-2.59-1.876-.804 0-1.251.09-1.519.09v3.84zm0 7.236c.357.09.804.09 1.429.09 1.698 0 3.127-.626 3.127-2.323 0-1.608-1.429-2.234-3.305-2.234h-1.251v4.467zm26.353-5.717c0 5.36-3.216 8.575-7.95 8.575-4.824 0-7.683-3.662-7.683-8.308 0-4.823 3.127-8.486 7.861-8.486 5.003 0 7.772 3.752 7.772 8.219zm-11.702.268c0 3.215 1.518 5.449 3.93 5.449 2.502 0 3.931-2.323 3.931-5.539 0-2.948-1.34-5.45-3.931-5.45-2.501 0-3.93 2.324-3.93 5.54zm29.569-.268c0 5.36-3.216 8.575-7.951 8.575-4.824 0-7.683-3.662-7.683-8.308 0-4.823 3.127-8.486 7.862-8.486 5.002 0 7.772 3.752 7.772 8.219zm-11.703.268c0 3.215 1.519 5.449 3.931 5.449 2.501 0 3.93-2.323 3.93-5.539 0-2.948-1.34-5.45-3.93-5.45-2.502 0-3.931 2.324-3.931 5.54zm14.74-8.219h3.662v7.147h.09c.357-.626.714-1.162 1.072-1.787l3.662-5.45h4.467l-5.36 6.88 5.628 9.29h-4.288l-4.02-6.968-1.34 1.697v5.27h-3.663V5.896h.09z" fill="#F46F14"/><path d="M56 21.855V6.215h4.813c1.374 0 2.603.311 3.684.934 1.089.616 1.937 1.497 2.546 2.643.609 1.139.913 2.435.913 3.889v.72c0 1.453-.3 2.746-.902 3.877a6.39 6.39 0 01-2.525 2.632c-1.088.623-2.316.938-3.684.945H56zm3.223-13.03v10.442h1.557c1.26 0 2.224-.412 2.89-1.236.666-.823 1.006-2.001 1.02-3.534v-.827c0-1.59-.329-2.793-.988-3.61-.659-.823-1.622-1.235-2.89-1.235h-1.59zm19.679 9.808h-5.65l-1.074 3.223H68.75l5.822-15.641h2.987l5.854 15.64h-3.427l-1.085-3.222zm-4.78-2.61h3.91l-1.966-5.855-1.944 5.855zm16.543.107h-2.567v5.726h-3.223V6.214h5.811c1.848 0 3.273.412 4.276 1.235 1.002.824 1.504 1.987 1.504 3.491 0 1.067-.233 1.96-.698 2.675-.459.71-1.157 1.275-2.095 1.697l3.384 6.392v.15h-3.46l-2.932-5.725zm-2.567-2.61h2.6c.809 0 1.435-.205 1.88-.613.443-.415.665-.985.665-1.708 0-.737-.211-1.317-.634-1.74-.415-.423-1.056-.634-1.922-.634h-2.59v4.695zm15.726 2.062l-1.676 1.805v4.468h-3.222V6.215h3.222v7.09l1.418-1.945 3.986-5.145h3.964l-5.554 6.95 5.715 8.69h-3.835l-4.018-6.273zm12.289 3.685h6.843v2.588h-10.065V6.215h3.222v13.052zm12.128 2.588h-3.222V6.215h3.222v15.64zm15.372-1.976c-.58.695-1.4 1.235-2.46 1.622-1.06.38-2.234.57-3.523.57-1.354 0-2.542-.294-3.567-.882-1.016-.594-1.804-1.453-2.363-2.578-.551-1.124-.834-2.445-.848-3.963v-1.064c0-1.561.261-2.911.784-4.05.53-1.146 1.289-2.02 2.277-2.62.996-.61 2.159-.914 3.491-.914 1.855 0 3.305.444 4.351 1.332 1.045.88 1.665 2.166 1.858 3.856h-3.136c-.144-.895-.462-1.55-.956-1.965-.487-.416-1.161-.623-2.02-.623-1.096 0-1.93.411-2.503 1.235-.573.823-.863 2.048-.87 3.674v.999c0 1.64.311 2.879.934 3.717.624.837 1.537 1.256 2.74 1.256 1.21 0 2.073-.257 2.589-.773v-2.696h-2.933v-2.374h6.155v6.24zm15.351 1.976h-3.223v-6.703h-6.284v6.704h-3.223V6.214h3.223v6.338h6.284V6.215h3.223v15.64zm14.276-13.03h-4.791v13.03h-3.222V8.825H160.5v-2.61h12.74v2.61z" fill="#004C4C"/></svg>