<svg width="22" height="20" fill="none" xmlns="http://www.w3.org/2000/svg"><path fill-rule="evenodd" clip-rule="evenodd" d="M0 1a1 1 0 011-1h6a5 5 0 015 5v14a1 1 0 11-2 0 2 2 0 00-2-2H1a1 1 0 01-1-1V1zm10 14.536V5a3 3 0 00-3-3H2v13h6a4 4 0 012 .536z" fill="#828282"/><path fill-rule="evenodd" clip-rule="evenodd" d="M11.464 1.464A5 5 0 0115 0h6a1 1 0 011 1v15a1 1 0 01-1 1h-7a2 2 0 00-2 2 1 1 0 11-2 0V5a5 5 0 011.464-3.536zM12 15.536A4 4 0 0114 15h6V2h-5a3 3 0 00-3 3v10.536z" fill="#828282"/></svg>