<svg width="24" height="24" fill="none" xmlns="http://www.w3.org/2000/svg"><path d="M9 13.5H3.75a.75.75 0 01-.75-.75v-9A.75.75 0 013.75 3h13.5a.75.75 0 01.75.75V7.5h-1.5v-3h-12V12H9v1.5zm6.75 1.5c-2.213 0-4.052-.48-5.25-1.284V15c0 1.243 2.35 2.25 5.25 2.25S21 16.243 21 15v-1.284C19.802 14.52 17.963 15 15.75 15zm0 3.75c-2.213 0-4.052-.48-5.25-1.284v1.284c0 1.243 2.35 2.25 5.25 2.25S21 19.993 21 18.75v-1.284c-1.198.805-3.037 1.284-5.25 1.284z" fill="#828282"/><path d="M9.682 9.504c.514-.6 1.3-1.091 2.3-1.437A1.496 1.496 0 0010.5 6.75a1.497 1.497 0 00-.818 2.754zM15.75 13.5c2.9 0 5.25-1.007 5.25-2.25S18.65 9 15.75 9s-5.25 1.007-5.25 2.25 2.35 2.25 5.25 2.25z" fill="#828282"/></svg>