<svg width="18" height="18" fill="none" xmlns="http://www.w3.org/2000/svg"><path d="M16.2 10.8H1.8V5.4h4.572L4.5 7.947 5.958 9 8.1 6.084 9 4.86l.9 1.224L12.042 9 13.5 7.947 11.628 5.4H16.2v5.4zm0 4.5H1.8v-1.8h14.4v1.8zM6.3 1.8a.9.9 0 110 1.8.9.9 0 010-1.8zm5.4 0a.9.9 0 110 1.8.9.9 0 010-1.8zm4.5 1.8h-1.962c.099-.279.162-.585.162-.9A2.7 2.7 0 0011.7 0c-.945 0-1.764.486-2.25 1.215L9 1.8l-.45-.594A2.7 2.7 0 003.6 2.7c0 .315.063.621.162.9H1.8C.801 3.6 0 4.401 0 5.4v9.9c0 .999.801 1.8 1.8 1.8h14.4c.999 0 1.8-.801 1.8-1.8V5.4c0-.999-.801-1.8-1.8-1.8z" fill="#4A53EC"/></svg>