<svg width="20" height="20" fill="none" xmlns="http://www.w3.org/2000/svg"><path fill-rule="evenodd" clip-rule="evenodd" d="M17.916 15.834H15a3.337 3.337 0 01-3.334-3.334A3.337 3.337 0 0115 9.167h2.916c.23 0 .417-.186.417-.417V7.5c0-.873-.678-1.584-1.534-1.653l-2.393-4.18a1.646 1.646 0 00-2.262-.609L3.94 5.834H2.5C1.58 5.834.833 6.58.833 7.5v10c0 .92.747 1.667 1.667 1.667h14.166c.92 0 1.667-.748 1.667-1.667v-1.25a.416.416 0 00-.417-.416zM14.923 4.248l.908 1.586h-3.632l2.724-1.586zM5.597 5.834l6.966-4.056a.817.817 0 011.12.304v.001l-6.441 3.75H5.597zM17.917 10H15a2.503 2.503 0 00-2.5 2.5c0 1.379 1.121 2.5 2.5 2.5h2.916c.69 0 1.25-.56 1.25-1.25v-2.5c0-.69-.56-1.25-1.25-1.25zM15 13.334a.834.834 0 010-1.667.834.834 0 010 1.667z" fill="#4953ED"/></svg>