<svg width="13" height="13" fill="none" xmlns="http://www.w3.org/2000/svg"><g clip-path="url(#clip0_1368_42681)"><path d="M12.188 6.506H.812a.792.792 0 01-.57-.234A.766.766 0 010 5.7c0-.224.078-.416.235-.577a.775.775 0 01.577-.241h.711a1.805 1.805 0 001.524.812 1.803 1.803 0 001.523-.812h3.86a1.805 1.805 0 001.523.812 1.804 1.804 0 001.524-.812h.71c.229 0 .422.08.578.24A.8.8 0 0113 5.7c0 .224-.08.414-.241.57a.792.792 0 01-.572.235zm-1.956-1.7a.63.63 0 01-.507.064.664.664 0 01-.407-.317L7.401 1.027a.66.66 0 01-.07-.513.641.641 0 01.312-.412.63.63 0 01.507-.064c.178.05.314.157.407.317l1.917 3.526c.093.16.116.332.07.514a.642.642 0 01-.312.412zm-6.55-.253a.664.664 0 01-.407.317.63.63 0 01-.507-.063.641.641 0 01-.311-.412.66.66 0 01.07-.514L4.442.355A.664.664 0 014.85.038a.63.63 0 01.507.064c.161.093.265.23.311.412a.66.66 0 01-.07.513L3.683 4.553zm7.693 7.635c-.068.338-.193.558-.374.66-.182.101-.46.152-.832.152H2.882c-.381 0-.669-.05-.863-.152-.195-.102-.326-.322-.394-.66l-.813-4.87h11.376l-.813 4.87zM9.344 9.753H8.125V8.536a.39.39 0 00-.12-.286.39.39 0 00-.286-.12.39.39 0 00-.286.12.39.39 0 00-.12.286v1.217h-1.22a.39.39 0 00-.285.12.39.39 0 00-.12.286c0 .11.04.205.12.285.08.08.176.12.286.12h1.218v1.219c0 .11.04.205.121.285.08.08.176.12.286.12a.39.39 0 00.285-.12.39.39 0 00.121-.285v-1.218h1.219a.39.39 0 00.285-.12.39.39 0 00.121-.286.39.39 0 00-.12-.285.39.39 0 00-.286-.12z" fill="#fff"/></g><defs><clipPath id="clip0_1368_42681"><path fill="#fff" d="M0 0h13v13H0z"/></clipPath></defs></svg>