<svg width="12" height="10" fill="none" xmlns="http://www.w3.org/2000/svg"><path fill-rule="evenodd" clip-rule="evenodd" d="M.5.5A.5.5 0 011 0h3a2.5 2.5 0 012.5 2.5v7a.5.5 0 01-1 0 1 1 0 00-1-1H1A.5.5 0 01.5 8V.5zm5 7.268V2.5A1.5 1.5 0 004 1H1.5v6.5h3a2 2 0 011 .268z" fill="#fff"/><path fill-rule="evenodd" clip-rule="evenodd" d="M6.232.732A2.5 2.5 0 018 0h3a.5.5 0 01.5.5V8a.5.5 0 01-.5.5H7.5a1 1 0 00-1 1 .5.5 0 01-1 0v-7A2.5 2.5 0 016.232.732zM6.5 7.768a2 2 0 011-.268h3V1H8a1.5 1.5 0 00-1.5 1.5v5.268z" fill="#fff"/></svg>