<svg width="12" height="12" fill="none" xmlns="http://www.w3.org/2000/svg"><path d="M3.75 3.969a.27.27 0 00.281.281h.938c.14 0 .281-.117.281-.281V3.03c0-.14-.14-.281-.281-.281H4.03a.285.285 0 00-.281.281v.938zm3.281.281h.938c.14 0 .281-.117.281-.281V3.03c0-.14-.14-.281-.281-.281H7.03a.285.285 0 00-.281.281v.938a.27.27 0 00.281.281zm-3 2.25h.938c.14 0 .281-.117.281-.281V5.28c0-.14-.14-.281-.281-.281H4.03a.285.285 0 00-.281.281v.938a.27.27 0 00.281.281zm3 0h.938c.14 0 .281-.117.281-.281V5.28c0-.14-.14-.281-.281-.281H7.03a.285.285 0 00-.281.281v.938a.27.27 0 00.281.281zM5.25 8.469V7.53c0-.14-.14-.281-.281-.281H4.03a.285.285 0 00-.281.281v.938a.27.27 0 00.281.281h.938c.14 0 .281-.117.281-.281zm1.781.281h.938c.14 0 .281-.117.281-.281V7.53c0-.14-.14-.281-.281-.281H7.03a.285.285 0 00-.281.281v.938a.27.27 0 00.281.281zm4.219 2.906c0-.14-.14-.281-.281-.281H10.5V1.062A.57.57 0 009.937.5H2.04a.57.57 0 00-.562.563v10.312H1.03a.285.285 0 00-.281.281v.844h10.5v-.844zm-8.648-.304l.023-9.727 6.75.023v9.704H6.75v-1.57c0-.141-.14-.282-.281-.282H5.53a.285.285 0 00-.281.281v1.57H2.602z" fill="#5E6164"/></svg>