<svg width="21" height="21" fill="none" xmlns="http://www.w3.org/2000/svg"><path d="M6.56 17.997c.025-.339.073-.676.146-1.01.063-.296.256-1.138.538-2.358l.007-.03.39-1.683c.08-.342.142-.609.183-.697a3.489 3.489 0 01-.287-1.435c0-1.348.763-2.393 1.75-2.393.364-.006.71.151.95.43.24.277.352.65.305 1.004 0 .457-.085.805-.457 2.052-.071.24-.12.407-.167.576-.051.19-.096.36-.133.526-.097.39-.008.804.239 1.115a1.21 1.21 0 001.014.46c1.505 0 2.622-2.002 2.622-4.586 0-1.986-1.3-3.301-3.46-3.301a3.91 3.91 0 00-2.924 1.155 4.164 4.164 0 00-1.205 2.986 2.574 2.574 0 00.517 1.658.531.531 0 01.176.595 32.24 32.24 0 01-.177.685.413.413 0 01-.397.344.392.392 0 01-.18-.042c-1.169-.483-1.81-1.793-1.81-3.469 0-3.01 2.512-5.63 6.243-5.63 3.161 0 5.527 2.348 5.527 5.183 0 3.56-1.948 6.154-4.729 6.154a2.53 2.53 0 01-2.063-.967l-.043.179-.21.859-.001.007c-.147.605-.25 1.025-.29 1.183a7.348 7.348 0 01-.404 1.05 8.066 8.066 0 10-1.67-.599zm3.54 2.832C4.53 20.83.017 16.316.017 10.747.017 5.177 4.53.664 10.1.664c5.568 0 10.083 4.514 10.083 10.083 0 5.568-4.515 10.082-10.083 10.082z" fill="#959595"/></svg>