<svg width="17" height="16" fill="none" xmlns="http://www.w3.org/2000/svg"><path d="M15.583 0h-4c-.4 0-.666.267-.666.667s.266.666.666.666h2.8L10.717 5c-.2.2-.2.6 0 .867.133.066.333.133.466.133.134 0 .334-.067.4-.2l3.334-3.333v2.2c0 .4.266.666.666.666s.667-.266.667-.666v-4c0-.4-.267-.667-.667-.667z" fill="#8898AA"/><path d="M13.583 15.267h-.2c-2.133-.267-4.266-1-6.066-2.134a14.018 14.018 0 01-4.2-4.2A13.277 13.277 0 01.983 2.867c0-.534.134-1.067.467-1.467.333-.4.8-.667 1.333-.733h2.2c1 0 1.867.733 2 1.733.067.6.2 1.2.4 1.733.267.734.067 1.534-.466 2.134l-.467.466C7.25 7.933 8.25 9 9.517 9.8l.466-.467a2.083 2.083 0 012.134-.466c.533.2 1.133.333 1.733.4 1 .133 1.733 1 1.733 2v2c0 .533-.2 1.066-.6 1.4-.4.333-.866.6-1.4.6zM4.983 2h-2c-.2 0-.4.133-.533.267-.067.133-.133.266-.133.466.2 1.934.866 3.8 1.933 5.467 1 1.533 2.267 2.867 3.8 3.8a12.54 12.54 0 005.467 1.933c.266 0 .4-.066.533-.2a.605.605 0 00.2-.466v-2c0-.334-.267-.6-.6-.667-.667-.067-1.333-.267-2-.533-.267-.067-.533-.067-.733.133l-.867.867a.71.71 0 01-.8.133 10.94 10.94 0 01-4.267-4.267c-.066-.266 0-.6.2-.8l.867-.866c.133-.134.2-.467.133-.667-.266-.667-.4-1.333-.533-2 0-.333-.333-.6-.667-.6z" fill="#8898AA"/></svg>