<svg width="16" height="16" fill="none" xmlns="http://www.w3.org/2000/svg"><path fill-rule="evenodd" clip-rule="evenodd" d="M2.667 3.333A.67.67 0 002 4v8a.67.67 0 00.667.667h10.667A.67.67 0 0014 12V4a.67.67 0 00-.666-.667H2.667zM.667 4c0-1.102.898-2 2-2h10.667c1.101 0 2 .898 2 2v8c0 1.101-.899 2-2 2H2.667c-1.102 0-2-.899-2-2V4z" fill="#8898AA"/><path fill-rule="evenodd" clip-rule="evenodd" d="M.788 3.618a.667.667 0 01.928-.164L8 7.853l6.285-4.4a.667.667 0 01.764 1.093L8.383 9.213a.667.667 0 01-.765 0L.951 4.546a.667.667 0 01-.163-.928z" fill="#8898AA"/></svg>