<svg width="12" height="12" fill="none" xmlns="http://www.w3.org/2000/svg"><path fill-rule="evenodd" clip-rule="evenodd" d="M5.777.553a.5.5 0 01.447 0l5 2.5a.5.5 0 010 .894l-5 2.5a.5.5 0 01-.447 0l-5-2.5a.5.5 0 010-.894l5-2.5zM2.118 3.5L6 5.441 9.882 3.5 6 1.559 2.118 3.5zM.553 8.276a.5.5 0 01.67-.223L6 10.44l4.777-2.388a.5.5 0 11.447.894l-5 2.5a.5.5 0 01-.447 0l-5-2.5a.5.5 0 01-.224-.67z" fill="#5E6164"/><path fill-rule="evenodd" clip-rule="evenodd" d="M.553 5.776a.5.5 0 01.67-.223L6 7.94l4.777-2.388a.5.5 0 11.447.894l-5 2.5a.5.5 0 01-.447 0l-5-2.5a.5.5 0 01-.224-.67z" fill="#5E6164"/></svg>