<svg width="17" height="13" fill="none" xmlns="http://www.w3.org/2000/svg"><path d="M13.092 12.666a3 3 0 003-3v-6a3 3 0 00-3-3h-2.625a.38.38 0 00-.375.376v.75c0 .218.156.375.375.375h2.625c.812 0 1.5.687 1.5 1.5v6a1.5 1.5 0 01-1.5 1.5h-2.625a.38.38 0 00-.375.374v.75c0 .22.156.375.375.375h2.625zM5.31 1.291l-.625.626c-.157.125-.157.375 0 .53l3.53 3.407H.467a.38.38 0 00-.374.375v.875a.36.36 0 00.375.375h7.75l-3.531 3.437c-.157.157-.157.407 0 .532l.625.625c.125.156.375.156.53 0l5.126-5.125a.36.36 0 000-.532L5.842 1.292c-.156-.156-.406-.156-.531 0z" fill="#00559F"/></svg>