<svg width="10" height="10" fill="none" xmlns="http://www.w3.org/2000/svg"><path d="M4.997 0A4.996 4.996 0 000 5a5 5 0 104.997-5zM8.46 3H6.985a7.942 7.942 0 00-.69-1.78c.92.315 1.685.952 2.165 1.78zM5 1.018c.418.6.742 1.267.955 1.982h-1.91A6.924 6.924 0 015 1.018zM1.13 6A4.002 4.002 0 011 5c0-.345.048-.68.13-1h1.688c-.04.327-.068.66-.068 1 0 .34.027.673.07 1H1.13zm.408 1h1.475c.162.625.39 1.225.69 1.783A4.008 4.008 0 011.538 7zm1.475-4H1.538a4.008 4.008 0 012.165-1.782A8.009 8.009 0 003.013 3zM5 8.982A7.058 7.058 0 014.045 7h1.91A7.058 7.058 0 015 8.982zM6.17 6H3.83a6.948 6.948 0 01-.08-1c0-.34.033-.673.08-1h2.34c.048.327.08.66.08 1 0 .34-.032.673-.08 1zm.128 2.78A7.99 7.99 0 006.988 7h1.474a4.022 4.022 0 01-2.164 1.78zM7.18 6c.04-.327.07-.66.07-1 0-.34-.027-.673-.07-1h1.688a3.847 3.847 0 01-.001 2H7.18z" fill="#5E6164"/></svg>