<svg width="9" height="11" fill="none" xmlns="http://www.w3.org/2000/svg"><path fill-rule="evenodd" clip-rule="evenodd" d="M1.5 1.115v3.958A6.448 6.448 0 012.5 5c.943 0 1.72.311 2.322.552l.022.008.027.012C5.515 5.829 5.97 6 6.5 6c.465 0 .788-.056 1-.115V1.927A6.448 6.448 0 016.5 2c-.943 0-1.72-.311-2.322-.552l-.022-.008-.027-.012C3.485 1.171 3.03 1 2.5 1c-.465 0-.788.056-1 .115zM.937.25C1.25.125 1.75 0 2.5 0s1.375.25 2 .5l.028.011C5.143.757 5.762 1 6.5 1 7.101 1 7.541.92 7.853.824a.5.5 0 01.647.478V6.23a.5.5 0 01-.278.448c-.047.023-.1.047-.16.071C7.75 6.875 7.25 7 6.5 7s-1.375-.25-2-.5l-.028-.011C3.857 6.243 3.238 6 2.5 6c-.601 0-1.041.08-1.353.176A.5.5 0 01.5 5.698V.77A.5.5 0 01.778.321C.825.298.878.274.938.25z" fill="#5E6164"/><path fill-rule="evenodd" clip-rule="evenodd" d="M1 4a.5.5 0 01.5.5V10a.5.5 0 01-1 0V4.5A.5.5 0 011 4z" fill="#5E6164"/></svg>