<svg width="17" height="16" fill="none" xmlns="http://www.w3.org/2000/svg"><path fill-rule="evenodd" clip-rule="evenodd" d="M8.75 1.333a5.333 5.333 0 00-5.334 5.334c0 2.065 1.344 4.07 2.818 5.624a19.622 19.622 0 002.516 2.224 19.62 19.62 0 002.516-2.224c1.473-1.555 2.817-3.559 2.817-5.624A5.333 5.333 0 008.75 1.333zm0 14l-.37.555-.002-.002-.005-.002-.015-.01a7.07 7.07 0 01-.256-.181 20.934 20.934 0 01-2.836-2.484c-1.527-1.612-3.183-3.941-3.183-6.542a6.667 6.667 0 0113.333 0c0 2.601-1.656 4.93-3.182 6.542a20.942 20.942 0 01-3.037 2.626 7.07 7.07 0 01-.056.038l-.015.01-.004.004H9.12l-.37-.554zm0 0l.37.555a.667.667 0 01-.74 0l.37-.555z" fill="#8898AA"/><path fill-rule="evenodd" clip-rule="evenodd" d="M8.75 5.333A1.333 1.333 0 108.75 8a1.333 1.333 0 000-2.667zM6.083 6.667a2.667 2.667 0 115.333 0 2.667 2.667 0 01-5.333 0z" fill="#8898AA"/></svg>