<svg width="20" height="17" fill="none" xmlns="http://www.w3.org/2000/svg"><path d="M18.64 6.114L13.093.568C12.148-.41 10.54.284 10.54 1.639V4.16c-4.348.126-9.579.977-9.579 6.365 0 2.3 1.198 4.222 3.057 5.45 1.166.789 2.71-.314 2.268-1.7-.756-2.458-.378-3.75 4.254-4.034V12.7c0 1.355 1.607 2.048 2.553 1.071l5.545-5.545a1.465 1.465 0 000-2.111zm-6.586 6.585V8.697c-5.2.032-8.76 1.04-7.184 6.019-1.135-.757-2.395-2.08-2.395-4.191 0-4.506 5.041-4.853 9.579-4.853V1.608l5.545 5.545-5.545 5.546z" fill="#959595"/></svg>