<svg width="12" height="9" fill="none" xmlns="http://www.w3.org/2000/svg"><path d="M6 2.396c-.215.02-.43.04-.625.098.098.156.137.351.156.527 0 .605-.508 1.094-1.093 1.094-.196 0-.391-.04-.528-.137-.058.195-.098.39-.098.605 0 1.211.977 2.188 2.188 2.188 1.21 0 2.188-.977 2.188-2.188A2.18 2.18 0 006 2.417v-.02zm5.547 1.914C10.492 2.24 8.383.833 6 .833 3.598.833 1.488 2.24.434 4.31a.624.624 0 00-.059.274c0 .117.02.214.059.292C1.488 6.946 3.598 8.334 6 8.334c2.383 0 4.492-1.387 5.547-3.458a.625.625 0 00.058-.273.653.653 0 00-.058-.293zM6 7.396c-1.934 0-3.71-1.074-4.648-2.813C2.289 2.845 4.066 1.772 6 1.772c1.914 0 3.691 1.074 4.629 2.813C9.69 6.322 7.914 7.396 6 7.396z" fill="#8898AA"/></svg>