<svg width="13" height="12" fill="none" xmlns="http://www.w3.org/2000/svg"><mask id="a" maskUnits="userSpaceOnUse" x="0" y="-.25" width="13" height="13" fill="#000"><path fill="#fff" d="M0-.25h13v13H0z"/><path fill-rule="evenodd" clip-rule="evenodd" d="M3.25 1.5v3.44l5.25 5.25 3.44-3.44L6.69 1.5H3.25zm-.75 0a.75.75 0 01.75-.75h3.44a.75.75 0 01.53.22l5.25 5.25a.75.75 0 010 1.06l-3.44 3.44a.75.75 0 01-1.06 0L2.72 5.47a.75.75 0 01-.22-.53V1.5z"/><path fill-rule="evenodd" clip-rule="evenodd" d="M5.125 3.75a.375.375 0 100-.75.375.375 0 000 .75zm0 .75a1.125 1.125 0 100-2.25 1.125 1.125 0 000 2.25z"/><path d="M1.75 5.314c0 .2.079.39.22.53l5.593 5.593-.033.033a.75.75 0 01-1.06 0L1.22 6.22A.75.75 0 011 5.69V2.25a.75.75 0 01.75-.75v3.814z"/></mask><path fill-rule="evenodd" clip-rule="evenodd" d="M3.25 1.5v3.44l5.25 5.25 3.44-3.44L6.69 1.5H3.25zm-.75 0a.75.75 0 01.75-.75h3.44a.75.75 0 01.53.22l5.25 5.25a.75.75 0 010 1.06l-3.44 3.44a.75.75 0 01-1.06 0L2.72 5.47a.75.75 0 01-.22-.53V1.5z" fill="#5E6164"/><path fill-rule="evenodd" clip-rule="evenodd" d="M5.125 3.75a.375.375 0 100-.75.375.375 0 000 .75zm0 .75a1.125 1.125 0 100-2.25 1.125 1.125 0 000 2.25z" fill="#5E6164"/><path d="M1.75 5.314c0 .2.079.39.22.53l5.593 5.593-.033.033a.75.75 0 01-1.06 0L1.22 6.22A.75.75 0 011 5.69V2.25a.75.75 0 01.75-.75v3.814z" fill="#5E6164"/><path d="M3.25 4.94h-.1a.1.1 0 00.03.07l.07-.07zm0-3.44v-.1a.1.1 0 00-.1.1h.1zm5.25 8.69l-.07.07a.1.1 0 00.14 0l-.07-.07zm3.44-3.44l.07.07a.1.1 0 000-.14l-.07.07zM6.69 1.5l.07-.07a.1.1 0 00-.07-.03v.1zm.53-.53l.07-.071-.07.07zm5.25 5.25l.07-.071-.07.07zm-9.75-.75l.07-.071-.07.07zm-.75.375l.07-.071-.07.07zm5.593 5.593l.07.07a.1.1 0 000-.141l-.07.07zM1.22 6.22l.07-.071-.07.07zm.53-4.72h.1a.1.1 0 00-.1-.1v.1zm1.6 3.44V1.5h-.2v3.44h.2zm5.22 5.179l-5.25-5.25-.14.141 5.25 5.25.14-.141zm3.299-3.44l-3.44 3.44.142.141 3.44-3.44-.142-.14zm-5.25-5.108l5.25 5.25.141-.142-5.25-5.25-.141.142zM3.25 1.6h3.44v-.2H3.25v.2zm0-.95a.85.85 0 00-.85.85h.2a.65.65 0 01.65-.65v-.2zm3.44 0H3.25v.2h3.44v-.2zm.6.249a.85.85 0 00-.6-.249v.2a.65.65 0 01.459.19L7.29.9zm5.25 5.25L7.29.899l-.141.141 5.25 5.25.141-.141zm0 1.202a.85.85 0 000-1.202l-.141.141a.65.65 0 010 .92l.141.141zm-3.439 3.44l3.44-3.44-.142-.141-3.44 3.439.142.141zm-1.202 0a.85.85 0 001.202 0l-.141-.142a.65.65 0 01-.92 0l-.141.141zm-5.25-5.25l5.25 5.25.141-.142-5.25-5.25-.141.141zM2.4 4.938c0 .226.09.442.249.601L2.79 5.4a.65.65 0 01-.19-.46h-.2zm0-3.439v3.44h.2V1.5h-.2zm3 1.875a.275.275 0 01-.275.275v.2a.475.475 0 00.475-.475h-.2zM5.125 3.1c.152 0 .275.123.275.275h.2a.475.475 0 00-.475-.475v.2zm-.275.275c0-.152.123-.275.275-.275v-.2a.475.475 0 00-.475.475h.2zm.275.275a.275.275 0 01-.275-.275h-.2c0 .262.213.475.475.475v-.2zm1.025-.275c0 .566-.459 1.025-1.025 1.025v.2c.677 0 1.225-.548 1.225-1.225h-.2zM5.125 2.35c.566 0 1.025.459 1.025 1.025h.2c0-.677-.548-1.225-1.225-1.225v.2zM4.1 3.375c0-.566.459-1.025 1.025-1.025v-.2c-.677 0-1.225.548-1.225 1.225h.2zM5.125 4.4A1.025 1.025 0 014.1 3.375h-.2c0 .677.548 1.225 1.225 1.225v-.2zm-3.475.914c0 .226.09.442.249.601l.141-.141a.65.65 0 01-.19-.46h-.2zm.249.601l5.593 5.593.141-.141L2.04 5.774l-.141.141zm5.702 5.625l.032-.032-.141-.141-.032.032.141.141zm-1.202 0a.85.85 0 001.202 0l-.141-.14a.65.65 0 01-.92 0l-.141.141zm-5.25-5.25l5.25 5.25.141-.141-5.25-5.25-.141.141zM.9 5.69c0 .225.09.441.249.6l.141-.141a.65.65 0 01-.19-.46H.9zm0-3.44v3.44h.2V2.25H.9zm.85-.85a.85.85 0 00-.85.85h.2a.65.65 0 01.65-.65v-.2zm-.1.1v3.814h.2V1.5h-.2z" fill="#5E6164" mask="url(#a)"/></svg>