<svg width="12" height="17" fill="none" xmlns="http://www.w3.org/2000/svg"><path d="M11.531 3.229L8.937.635C8.658.354 8.281.167 7.875.167H1.5a1.5 1.5 0 00-1.5 1.5v13c0 .843.656 1.5 1.5 1.5h9a1.5 1.5 0 001.5-1.5V4.29c0-.406-.188-.78-.469-1.062zm-1.156.938H8V1.792l2.375 2.375zM1.5 14.666v-13h5v3.25c0 .437.313.75.75.75h3.25v9h-9zm7.125-6.594L7 9.729V8.541a.627.627 0 00-.625-.625h-3.25a.608.608 0 00-.625.625v3.25c0 .375.25.625.625.625h3.25c.344 0 .625-.25.625-.625v-1.156l1.625 1.656c.313.313.875.094.875-.375V8.448c0-.469-.563-.688-.875-.375z" fill="#2E82BC"/></svg>