<svg width="12" height="13" fill="none" xmlns="http://www.w3.org/2000/svg"><path fill-rule="evenodd" clip-rule="evenodd" d="M3.555 1.787V8.42H.763V1.787c0-.097.078-.175.174-.175h2.444c.096 0 .174.078.174.175zM2.16 3.532a.175.175 0 00-.174.175V5.8a.175.175 0 10.349 0V3.707a.174.174 0 00-.175-.175z" fill="#18558E"/><path d="M.763 8.769v2.793c0 .096.078.174.174.174h2.444a.174.174 0 00.174-.174V8.769H.763z" fill="#18558E"/><path fill-rule="evenodd" clip-rule="evenodd" d="M6.872 1.787V8.42H4.079V1.787c0-.097.078-.175.175-.175h2.443c.097 0 .175.078.175.175zM5.475 3.532a.175.175 0 00-.174.175V5.8a.174.174 0 10.349 0V3.707a.175.175 0 00-.175-.175z" fill="#18558E"/><path d="M4.08 8.769v2.793c0 .096.077.174.174.174h2.443a.174.174 0 00.175-.174V8.769H4.079z" fill="#18558E"/><path fill-rule="evenodd" clip-rule="evenodd" d="M9.268 1.468l1.259 6.512-2.742.53-1.26-6.512a.175.175 0 01.139-.204l2.4-.464a.174.174 0 01.205.138zm-.835 2.117a.174.174 0 10-.343.066l.397 2.057a.175.175 0 10.343-.067l-.397-2.056z" fill="#18558E"/><path d="M7.852 8.853l.53 2.742a.175.175 0 00.204.138l2.4-.464a.175.175 0 00.138-.204l-.53-2.742-2.742.53z" fill="#18558E"/></svg>