<svg width="16" height="16" fill="none" xmlns="http://www.w3.org/2000/svg"><path d="M14.558 13.24l-3.309-3.308c-.082-.055-.164-.11-.246-.11h-.355a5.726 5.726 0 001.394-3.718c0-3.117-2.57-5.687-5.688-5.687C3.21.417.667 2.987.667 6.104a5.683 5.683 0 005.687 5.687 5.76 5.76 0 003.72-1.367v.356c0 .082.027.164.081.246l3.309 3.309c.137.136.355.136.465 0l.629-.63c.136-.109.136-.328 0-.464zm-8.204-2.76A4.353 4.353 0 011.98 6.104a4.37 4.37 0 014.375-4.375 4.388 4.388 0 014.375 4.375 4.37 4.37 0 01-4.375 4.375z" fill="#fff"/></svg>