<svg width="14" height="14" fill="none" xmlns="http://www.w3.org/2000/svg"><path d="M.422 8.087a6.628 6.628 0 010-2.174c.734.018 1.394-.334 1.651-.954.257-.62.039-1.336-.493-1.842A6.628 6.628 0 013.117 1.58c.507.532 1.223.75 1.843.494.62-.257.971-.918.953-1.652.72-.12 1.455-.12 2.175 0-.018.735.334 1.395.953 1.652.62.256 1.336.038 1.842-.494a6.63 6.63 0 011.538 1.538c-.532.506-.75 1.222-.493 1.842.256.62.917.972 1.651.954.12.72.12 1.454 0 2.174-.735-.018-1.395.334-1.651.954-.257.62-.039 1.336.493 1.842a6.63 6.63 0 01-1.537 1.538c-.507-.532-1.223-.75-1.843-.494-.62.257-.971.918-.953 1.652a6.63 6.63 0 01-2.175 0c.018-.735-.334-1.395-.953-1.652-.62-.256-1.336-.038-1.842.494a6.627 6.627 0 01-1.538-1.538c.532-.506.75-1.222.493-1.842-.257-.62-.917-.972-1.651-.954zM7 9a2 2 0 100-4 2 2 0 000 4z" fill="#00559F"/></svg>