<svg width="16" height="16" fill="none" xmlns="http://www.w3.org/2000/svg"><path d="M5.333 6.667h-2v-2H2v2H0V8h2v2h1.333V8h2V6.667zM12 7.334a1.996 1.996 0 001.993-2A1.996 1.996 0 0011.39 3.43a3.32 3.32 0 01.603 1.903 3.32 3.32 0 01-.603 1.904c.193.063.397.096.61.096zm-3.333 0a1.996 1.996 0 001.993-2 1.996 1.996 0 10-3.993 0c0 1.103.896 2 2 2zm4.413 1.44c.553.483.92 1.106.92 1.893V12h2v-1.333c0-1.027-1.583-1.657-2.92-1.893zm-4.413-.107c-1.334 0-4 .667-4 2V12h8v-1.333c0-1.333-2.667-2-4-2z" fill="#00559F"/></svg>