<svg width="13" height="12" fill="none" xmlns="http://www.w3.org/2000/svg"><path d="M12.07 5.047c0 .098-.057.205-.173.321l-2.431 2.37.576 3.35c.004.03.007.075.007.133a.368.368 0 01-.074.234.225.225 0 01-.201.1.542.542 0 01-.268-.08L6.5 9.895l-3.006 1.58a.569.569 0 01-.268.08.25.25 0 01-.214-.1.393.393 0 01-.067-.234c0-.027.004-.071.013-.134l.576-3.348-2.438-2.37C.984 5.247.928 5.14.928 5.046c0-.165.125-.268.375-.308l3.362-.489L6.17 1.203c.086-.183.195-.273.33-.273s.244.091.329.274L8.334 4.25l3.362.489c.25.04.375.143.375.308z" fill="#F2C94C"/></svg>